:SAMPLES-PER-SECOND 30
:FULLY-SPECIFIED
:DEGREES
66
root  -36.4614 37.4559 -26.2555 -120.594 -89.7829 139.107
RightUpLeg  -53.5509 -16.8721 3.36551
RightLeg  23.5121 1.58671 0.489766
RightFoot  12.4725 0.296669 -1.05315
RightToes  0.00048216 0.542163 -0.142577
Spine  61.3149 -5.57444 10.1006
Spine1  9.79632 2.02539 -5.27575
HEad  -34.0645 -13.8471 0.989535
LeftShoulder1  9.32444 -28.038 -23.0285
LeftArm  -37.0768 -61.4901 -13.3298
LeftForeArm  21.3979 -1.22101 -1.97661
LeftHand  -0.25398 0.0180481 5.50724
RightShoulder  4.45791 15.2354 17.1509
RightArm  -41.7328 52.918 -3.31512
RightForeArm  -3.05475 -0.741758 4.56312
RightHand  -0.861933 3.31654 -11.7551
LeftUpLeg  -53.8382 15.4236 -14.8241
LeftLeg  33.659 -1.01416 -0.367215
LeftFoot  0.513317 -1.19049 11.3912
LeftToes  1.06246e-005 4.65856e-005 -8.18501e-006
67
root  -37.0077 37.087 -26.9951 14.3873 -88.6444 6.93835
RightUpLeg  -58.7591 -16.6363 5.58765
RightLeg  29.2328 0.737224 0.214986
RightFoot  10.0197 0.683412 -3.25829
RightToes  0.00048216 0.542163 -0.142577
Spine  63.9596 -5.87603 10.5981
Spine1  8.08468 2.2789 -5.41272
HEad  -36.9347 -13.9134 1.84766
LeftShoulder1  8.88961 -28.2416 -21.3905
LeftArm  -45.7558 -65.2944 -5.07009
LeftForeArm  20.844 -2.65185 -1.36287
LeftHand  -0.25398 0.0180481 5.50724
RightShoulder  4.42213 16.1785 15.699
RightArm  -47.9915 52.9379 -10.7157
RightForeArm  -4.08304 -1.02209 3.89586
RightHand  -0.707006 3.21778 -9.80336
LeftUpLeg  -58.167 14.4229 -13.4913
LeftLeg  37.6387 -1.10298 -0.536456
LeftFoot  -1.34995 -0.865269 9.96746
LeftToes  1.06246e-005 4.65856e-005 -8.18501e-006
68
root  -37.5629 36.7714 -27.6868 22.7344 -87.7464 1.40396
RightUpLeg  -63.5589 -16.7774 7.74784
RightLeg  33.899 0.494267 0.10272
RightFoot  6.5017 0.758555 -4.53701
RightToes  0.00048216 0.542163 -0.142577
Spine  66.5373 -5.74205 10.4147
Spine1  6.33168 2.39688 -5.19209
HEad  -39.2988 -13.7805 2.27706
LeftShoulder1  8.64891 -28.7628 -20.1052
LeftArm  -56.1545 -67.5572 5.52902
LeftForeArm  18.6771 -3.82212 -0.841187
LeftHand  -0.25398 0.0180481 5.50724
RightShoulder  4.51403 17.2454 14.907
RightArm  -54.0197 52.3782 -18.6239
RightForeArm  -6.29854 -1.35609 3.40858
RightHand  -0.554795 3.11118 -7.85476
LeftUpLeg  -61.8152 13.3824 -12.4758
LeftLeg  40.4723 -0.900708 -0.43676
LeftFoot  -3.02064 -0.60901 8.60916
LeftToes  1.06246e-005 4.65856e-005 -8.18501e-006
69
root  -38.1218 36.4863 -28.3378 15.6647 -86.9659 11.2119
RightUpLeg  -67.7224 -17.0327 9.68806
RightLeg  37.3843 0.233236 -0.0830039
RightFoot  4.19114 0.825938 -5.83077
RightToes  0.00048216 0.542163 -0.142577
Spine  69.0296 -5.513 9.93315
Spine1  4.30068 2.33116 -5.0791
HEad  -40.8308 -13.6705 2.73794
LeftShoulder1  8.38038 -29.4106 -18.6557
LeftArm  -66.1783 -68.5693 15.9158
LeftForeArm  14.8811 -4.53194 -0.423591
LeftHand  -0.25398 0.0180481 5.50724
RightShoulder  4.56683 17.9585 14.3768
RightArm  -59.0929 51.4064 -24.631
RightForeArm  -9.89719 -1.43881 2.90642
RightHand  -0.45894 3.49809 -6.30912
LeftUpLeg  -64.9384 12.1246 -11.5946
LeftLeg  42.6447 -0.605622 -0.199669
LeftFoot  -4.3243 -0.401633 6.96568
LeftToes  1.06246e-005 4.65856e-005 -8.18501e-006
70
root  -38.6622 36.1943 -28.9043 17.1962 -86.4507 12.234
RightUpLeg  -71.3785 -16.7417 11.5755
RightLeg  40.404 -0.082986 -0.366251
RightFoot  2.51795 0.888769 -7.15699
RightToes  0.00048216 0.542163 -0.142577
Spine  71.1248 -5.46817 9.58937
Spine1  2.38581 2.34337 -5.8345
HEad  -41.757 -13.5239 3.49895
LeftShoulder1  7.66585 -29.8172 -16.0021
LeftArm  -74.5554 -68.5539 23.8405
LeftForeArm  10.9797 -5.23151 0.238498
LeftHand  -0.25398 0.0180481 5.50724
RightShoulder  4.5047 18.3062 13.6891
RightArm  -62.7616 50.4715 -28.2829
RightForeArm  -14.0521 -1.69732 2.39651
RightHand  -0.444275 4.8668 -5.39757
LeftUpLeg  -68.0085 11.2058 -10.3606
LeftLeg  44.958 -0.31531 0.0747354
LeftFoot  -5.52708 -0.224776 5.07601
LeftToes  1.06246e-005 4.65856e-005 -8.18501e-006
71
root  -39.1596 35.9068 -29.365 26.3271 -86.2668 5.25921
RightUpLeg  -74.4238 -16.0101 13.5004
RightLeg  43.1842 -0.217153 -0.52586
RightFoot  0.484247 0.859102 -8.24125
RightToes  0.00048216 0.542163 -0.142577
Spine  72.7699 -5.44344 9.23106
Spine1  1.19449 2.47076 -6.99555
HEad  -42.5322 -13.064 4.2461
LeftShoulder1  6.57321 -29.8236 -12.4357
LeftArm  -80.6978 -67.5829 28.8682
LeftForeArm  8.15053 -6.25709 1.17481
LeftHand  -0.25398 0.0180481 5.50724
RightShoulder  4.3598 18.8756 12.3969
RightArm  -64.4838 49.3807 -30.1489
RightForeArm  -18.6375 -2.36142 2.04264
RightHand  -0.489502 6.80373 -5.0882
LeftUpLeg  -70.8536 10.9243 -8.86022
LeftLeg  47.3642 -0.0664084 0.351479
LeftFoot  -6.84014 -0.0953231 3.48191
LeftToes  1.06246e-005 4.65856e-005 -8.18501e-006
72
root  -39.6111 35.66 -29.7465 34.0577 -86.1082 -0.782396
RightUpLeg  -76.7836 -15.5693 15.3876
RightLeg  45.4527 -0.145905 -0.484295
RightFoot  -1.44804 0.781527 -9.10975
RightToes  0.00048216 0.542163 -0.142577
Spine  74.0778 -5.25937 8.64225
Spine1  0.672806 2.49 -7.69148
HEad  -43.3026 -12.1659 4.67376
LeftShoulder1  5.56711 -29.6438 -9.22719
LeftArm  -84.2407 -66.0808 31.6454
LeftForeArm  5.50122 -7.21718 1.95919
LeftHand  -0.25398 0.0180481 5.50724
RightShoulder  4.07264 19.6071 10.3274
RightArm  -65.0105 48.0423 -29.8255
RightForeArm  -23.5124 -2.56956 1.59326
RightHand  -0.491481 8.34 -4.62987
LeftUpLeg  -72.9912 10.897 -7.61717
LeftLeg  49.2703 0.107099 0.57762
LeftFoot  -8.1723 -0.0167801 2.39269
LeftToes  1.06246e-005 4.65856e-005 -8.18501e-006
